<svg width="168" height="40" viewBox="0 0 168 40" fill="none" xmlns="http://www.w3.org/2000/svg">
<path d="M28.719 39.9962C27.2308 39.9962 25.893 39.2523 25.141 37.9945L21.848 32.4648H5.35118C2.39853 32.4648 0 30.141 0 27.2803V5.18455C0 2.32385 2.39853 0 5.35118 0H38.3606C41.3133 0 43.7118 2.32385 43.7118 5.18455V27.2879C43.7118 30.1486 41.3133 32.4725 38.3606 32.4725H35.598L32.305 38.0022C31.5609 39.2523 30.2231 40.0039 28.7269 40.0039L28.719 39.9962ZM5.35118 4.60168C5.01871 4.60168 4.74956 4.86244 4.74956 5.18455V27.2879C4.74956 27.6101 5.01871 27.8708 5.35118 27.8708H24.5948L28.719 34.7963L32.8432 27.8708H38.3527C38.6852 27.8708 38.9543 27.6101 38.9543 27.2879V5.18455C38.9543 4.86244 38.6852 4.60168 38.3527 4.60168H5.35118Z" fill="#FF6F0F"/>
<path d="M16.101 15.0708C14.5812 15.0708 13.3384 13.8667 13.3384 12.3942C13.3384 10.9216 14.5812 9.71753 16.101 9.71753C17.6209 9.71753 18.8637 10.9216 18.8637 12.3942C18.8637 13.8667 17.6209 15.0708 16.101 15.0708Z" fill="#FF6F0F"/>
<path d="M27.603 15.0709C26.0752 15.0709 24.8403 13.8668 24.8403 12.3943C24.8403 10.9218 26.0831 9.71765 27.603 9.71765C29.1229 9.71765 30.3657 10.9218 30.3657 12.3943C30.3657 13.8668 29.1229 15.0709 27.603 15.0709Z" fill="#FF6F0F"/>
<path d="M21.8558 22.4106C18.2857 22.4106 14.9769 21.6897 12.5387 20.3706C11.7709 19.9564 11.5018 19.0284 11.9213 18.2845C12.3488 17.5405 13.3066 17.2721 14.0744 17.6863C16.0218 18.737 18.8636 19.3352 21.8558 19.3352C24.848 19.3352 27.6424 18.7446 29.5897 17.7093C30.3575 17.3028 31.3154 17.5789 31.7349 18.3152C32.1544 19.0514 31.8695 19.9871 31.1095 20.3936C28.6714 21.6897 25.3863 22.3953 21.8558 22.3953V22.4106Z" fill="#FF6F0F" fill-opacity="0.988235"/>
<path d="M58.4513 11.0072H63.6837C65.0453 11.0072 66.2168 11.1299 67.1905 11.3753C68.1641 11.6207 69.0507 12.0809 69.8423 12.7481C71.9084 14.4584 72.9375 17.0661 72.9375 20.5633C72.9375 21.7137 72.8346 22.7721 72.6287 23.7231C72.4229 24.6742 72.0984 25.5331 71.6709 26.3001C71.2434 27.067 70.6814 27.7496 70.0086 28.3478C69.4782 28.808 68.8924 29.1838 68.2671 29.4599C67.6338 29.7437 66.953 29.9354 66.2327 30.0504C65.5044 30.1655 64.6891 30.2192 63.7787 30.2192H58.5463C57.818 30.2192 57.2639 30.1118 56.8998 29.8971C56.5277 29.6823 56.2902 29.3832 56.1794 28.9921C56.0686 28.6009 56.0132 28.0947 56.0132 27.4812V13.3924C56.0132 12.5564 56.2032 11.9429 56.591 11.5671C56.9789 11.1912 57.6043 10.9995 58.475 10.9995L58.4513 11.0072ZM60.0107 14.0903V27.1284H63.0584C63.7233 27.1284 64.2458 27.113 64.6257 27.0747C65.0057 27.044 65.3936 26.952 65.8052 26.8139C66.2089 26.6759 66.5651 26.4765 66.858 26.2234C68.2037 25.119 68.8766 23.2246 68.8766 20.5326C68.8766 18.6383 68.5837 17.2194 67.99 16.2761C67.3963 15.3328 66.668 14.7345 65.8052 14.4738C64.9424 14.213 63.8895 14.0903 62.6705 14.0903H60.0186H60.0107Z" fill="black"/>
<path d="M88.1044 28.0409L87.1544 25.6327H79.0881L78.1382 28.0946C77.7661 29.0533 77.4495 29.7052 77.1883 30.0427C76.927 30.3801 76.4996 30.5488 75.9059 30.5488C75.3993 30.5488 74.956 30.3724 74.5681 30.012C74.1802 29.6515 73.9902 29.245 73.9902 28.7925C73.9902 28.5318 74.0377 28.2633 74.1248 27.9796C74.2119 27.6958 74.3623 27.3123 74.5681 26.8138L79.6422 14.3356C79.7847 13.9751 79.9588 13.5456 80.1647 13.0471C80.3705 12.5486 80.5842 12.1268 80.8138 11.797C81.0433 11.4672 81.3441 11.1988 81.7241 10.9917C82.0962 10.7846 82.5632 10.6849 83.1094 10.6849C83.6556 10.6849 84.1385 10.7846 84.5105 10.9917C84.8826 11.1988 85.1834 11.4596 85.4129 11.7817C85.6425 12.1038 85.8404 12.4489 85.9987 12.8247C86.157 13.1928 86.3549 13.6914 86.6003 14.3126L91.7853 26.7141C92.189 27.6574 92.3948 28.34 92.3948 28.7695C92.3948 29.199 92.2048 29.6208 91.8169 29.9966C91.437 30.3648 90.9699 30.5565 90.4316 30.5565C90.115 30.5565 89.8459 30.5028 89.6163 30.3955C89.3867 30.2881 89.2047 30.1347 89.0463 29.9506C88.8959 29.7589 88.7297 29.4751 88.5556 29.084C88.3814 28.6928 88.231 28.3554 88.1044 28.0563V28.0409ZM80.1488 22.703H86.0779L83.0856 14.7728L80.1488 22.703Z" fill="black"/>
<path d="M102.037 27.3203L98.8544 15.0798V28.3403C98.8544 29.0766 98.6881 29.6211 98.3477 29.9892C98.0073 30.3574 97.5641 30.5414 97.002 30.5414C96.44 30.5414 96.0205 30.3574 95.6801 29.9969C95.3397 29.6364 95.1655 29.0842 95.1655 28.3403V13.1394C95.1655 12.3035 95.3872 11.7359 95.8384 11.4445C96.2896 11.153 96.8991 11.0073 97.667 11.0073H98.9098C99.6618 11.0073 100.2 11.0687 100.54 11.2067C100.881 11.3371 101.126 11.5749 101.292 11.9123C101.459 12.2574 101.641 12.8096 101.847 13.5766L104.728 24.0991L107.609 13.5766C107.815 12.8096 108.005 12.2498 108.164 11.9123C108.33 11.5749 108.575 11.3371 108.916 11.2067C109.256 11.0763 109.794 11.0073 110.546 11.0073H111.789C112.557 11.0073 113.166 11.153 113.618 11.4445C114.069 11.7359 114.29 12.3035 114.29 13.1394V28.3403C114.29 29.0766 114.124 29.6211 113.784 29.9892C113.443 30.3574 112.992 30.5414 112.422 30.5414C111.892 30.5414 111.449 30.3574 111.108 29.9892C110.768 29.6211 110.594 29.0689 110.594 28.3403V15.0798L107.411 27.3203C107.206 28.1179 107.032 28.7008 106.905 29.0689C106.778 29.437 106.533 29.7822 106.185 30.0813C105.836 30.3804 105.345 30.5414 104.72 30.5414C104.253 30.5414 103.857 30.4417 103.533 30.25C103.208 30.0506 102.955 29.8052 102.773 29.4984C102.591 29.1916 102.448 28.8542 102.345 28.4784C102.242 28.1102 102.132 27.7191 102.029 27.3203H102.037Z" fill="black"/>
<path d="M127.146 10.6775C129.204 10.6775 130.969 11.084 132.442 11.8893C133.914 12.6946 135.03 13.845 135.79 15.3405C136.55 16.8361 136.93 18.577 136.93 20.5864C136.93 22.0743 136.724 23.4241 136.305 24.6359C135.885 25.8477 135.268 26.9061 134.436 27.7957C133.605 28.6854 132.584 29.368 131.381 29.8435C130.17 30.319 128.784 30.5491 127.225 30.5491C125.665 30.5491 124.288 30.3036 123.061 29.8205C121.834 29.3373 120.813 28.6547 119.99 27.7727C119.166 26.8907 118.549 25.8247 118.13 24.5899C117.71 23.3474 117.504 22.0053 117.504 20.5634C117.504 19.1216 117.726 17.7334 118.161 16.4986C118.597 15.2638 119.23 14.2208 120.061 13.3541C120.892 12.4875 121.897 11.8279 123.093 11.3677C124.28 10.9076 125.634 10.6775 127.154 10.6775H127.146ZM132.853 20.5558C132.853 19.1522 132.624 17.9328 132.149 16.8974C131.682 15.8697 131.009 15.0874 130.138 14.5582C129.267 14.029 128.27 13.7683 127.138 13.7683C126.338 13.7683 125.594 13.914 124.913 14.2054C124.233 14.4969 123.647 14.9264 123.156 15.4862C122.665 16.0461 122.277 16.7594 121.992 17.626C121.708 18.4927 121.565 19.4744 121.565 20.5558C121.565 21.6371 121.708 22.6342 121.992 23.5162C122.277 24.3982 122.681 25.1268 123.196 25.7096C123.718 26.2925 124.312 26.722 124.985 27.0134C125.658 27.3049 126.394 27.4429 127.193 27.4429C128.222 27.4429 129.164 27.1898 130.027 26.699C130.89 26.2081 131.571 25.4335 132.085 24.3905C132.592 23.3474 132.845 22.0666 132.845 20.5481L132.853 20.5558Z" fill="black"/>
<path d="M140.524 28.1714V13.0319C140.524 12.2419 140.706 11.659 141.078 11.2602C141.45 10.8691 141.925 10.6697 142.511 10.6697C143.096 10.6697 143.603 10.8614 143.975 11.2526C144.347 11.6437 144.537 12.2342 144.537 13.0319V28.1714C144.537 28.969 144.347 29.5596 143.975 29.9507C143.603 30.3418 143.112 30.5412 142.511 30.5412C141.909 30.5412 141.458 30.3418 141.086 29.943C140.714 29.5442 140.524 28.9537 140.524 28.1637V28.1714Z" fill="black"/>
<path d="M155.73 27.3203L152.548 15.0798V28.3403C152.548 29.0766 152.382 29.6211 152.041 29.9892C151.701 30.3574 151.258 30.5414 150.696 30.5414C150.134 30.5414 149.714 30.3574 149.374 29.9969C149.033 29.6364 148.859 29.0842 148.859 28.3403V13.1394C148.859 12.3035 149.089 11.7359 149.54 11.4445C149.991 11.153 150.601 11.0073 151.368 11.0073H152.611C153.363 11.0073 153.902 11.0687 154.242 11.2067C154.582 11.3371 154.828 11.5749 154.994 11.9123C155.16 12.2574 155.342 12.8096 155.548 13.5766L158.429 24.0991L161.311 13.5766C161.517 12.8096 161.707 12.2498 161.865 11.9123C162.031 11.5749 162.277 11.3371 162.617 11.2067C162.957 11.0763 163.496 11.0073 164.248 11.0073H165.491C166.258 11.0073 166.868 11.153 167.319 11.4445C167.77 11.7359 168 12.3035 168 13.1394V28.3403C168 29.0766 167.834 29.6211 167.493 29.9892C167.153 30.3574 166.702 30.5414 166.132 30.5414C165.601 30.5414 165.166 30.3574 164.818 29.9892C164.477 29.6211 164.303 29.0689 164.303 28.3403V15.0798L161.121 27.3203C160.915 28.1179 160.741 28.7008 160.614 29.0689C160.488 29.437 160.242 29.7822 159.894 30.0813C159.546 30.3804 159.055 30.5414 158.429 30.5414C157.962 30.5414 157.567 30.4417 157.242 30.25C156.918 30.0506 156.664 29.8052 156.482 29.4984C156.3 29.1916 156.158 28.8542 156.055 28.4784C155.952 28.1102 155.841 27.7191 155.738 27.3203H155.73Z" fill="black"/>
</svg>
